# xmcd
#
# Track frame offsets:
#	182
#	18645
#	34887
#	52795
#	72785
#	89117
#	115370
#	138077
#	156512
#	179750
#	198360
#	218422
#	233832
#	252707
#	275132
#	294607
#
# Disc length: 4219 seconds
#
# Revision: 4
# Processed by: cddbd v1.5.2PL0 Copyright (c) Steve Scherf et al.
# Submitted via: EasyCDDAExtractor 11.5.3.1
#
DISCID=fa107910
DTITLE=Various Artist - Happy Hardcore 2 [CD2]
DYEAR=1995
DGENRE=Dance
TTITLE0=Scott Brown - Do What You Like (The Rezerection Anthem)
TTITLE1=Micado - It's Gonna Be A Fine Night
TTITLE2=Network - Words
TTITLE3=Bertocucci Feranzano and DJ Buzz Fuzz - Higher Love
TTITLE4=Scorpia (La Central Del Sonida) - Hypnose
TTITLE5=System Shock - Bizzy Time
TTITLE6=Mr Kinky - Just Laugh
TTITLE7=Highlander - Hold Me Now (Bass D and King Matthew Remix)
TTITLE8=Bill Daniel Bunter and JDS Ft. Gem - Let It Lift You (DJ Vibes and Wishdok
TTITLE8=ta Mix)
TTITLE9=Full Option - Rave All Night
TTITLE10=Happy Toons - I want You
TTITLE11=Ramirez - Baraonda
TTITLE12=Forbes and Cyclone - Full Forcer
TTITLE13=Vibes and Wishdokta - Hardcore Business
TTITLE14=Critical Mass - Dancing Together
TTITLE15=Toni Salmonelli - Hey!
EXTD=
EXTT0=
EXTT1=
EXTT2=
EXTT3=
EXTT4=
EXTT5=
EXTT6=
EXTT7=
EXTT8=
EXTT9=
EXTT10=
EXTT11=
EXTT12=
EXTT13=
EXTT14=
EXTT15=
PLAYORDER=
